# xmcd
# 
# Track frame offsets:
#     150
#     17740
#     31970
#     41927
#     60240
#     76820
#     95715
#     113807
#     132692
#     148760
#     165305
#     185205
#     198285
#     208317
# 
# Disc length: 3028
# 
# Revision: 1
# Processed by: cddbd v1.5.2PL0 Copyright (c) Steve Scherf et al.
# Submitted via: fre:ac v1.0.17
# 
DISCID=cb0bd20e
DTITLE=Bellamy Brothers - Sons of Beaches
DYEAR=1996
DGENRE=country
TTITLE0=Shine them buckles
TTITLE1=Big hair
TTITLE2=Pit bulls and chain saws
TTITLE3=Blue rodeo
TTITLE4=Twang town
TTITLE5=She's awsome
TTITLE6=Old hippie
TTITLE7=Native american
TTITLE8=Feel free
TTITLE9=Too much fun
TTITLE10=We dared the lightning
TTITLE11=Elvis Marilyn and James Dean
TTITLE12=Gotta get a little crazy
TTITLE13=Jesus is coming
EXTD=
EXTT0=
EXTT1=
EXTT2=
EXTT3=
EXTT4=
EXTT5=
EXTT6=
EXTT7=
EXTT8=
EXTT9=
EXTT10=
EXTT11=
EXTT12=
EXTT13=
PLAYORDER=
